<svg width="1099" height="2118" viewBox="0 0 1099 2118" fill="none" xmlns="http://www.w3.org/2000/svg">
<g clip-path="url(#clip0_2743_427)">
<path fill-rule="evenodd" clip-rule="evenodd" d="M40.4379 0.823242C284.517 887.213 970.588 1037.66 1098.12 1058.18H663.678C145.992 874.977 40.4379 0.823242 40.4379 0.823242ZM-161.756 1058.18C-161.756 1058.18 0.585938 775.054 0.585938 49.6942C0.585938 -100.532 6.56897 775.054 145.227 1058.18H-161.756ZM-667.299 1058.18H-1101.74C-974.211 1037.66 -288.14 887.213 -44.0602 0.823242C-44.0602 0.823242 -149.614 874.977 -667.299 1058.18ZM-44.0621 2116.91C-288.14 1230.52 -974.211 1080.08 -1101.74 1059.55H-667.3C-149.614 1242.76 -44.0621 2116.91 -44.0621 2116.91ZM145.227 1059.55C17.3939 1320.58 2.32788 2085.24 0.754883 2085.24C0.62085 2085.24 0.585938 2079.77 0.585938 2068.05C0.585938 1342.68 -161.756 1059.55 -161.756 1059.55H145.227ZM663.68 1059.55H1098.12C970.59 1080.08 284.519 1230.52 40.4369 2116.91C40.4369 2116.91 145.992 1242.76 663.68 1059.55Z" fill="#F5F5F5"/>
</g>
<defs>
<clipPath id="clip0_2743_427">
<rect width="2201" height="2117" fill="white" transform="translate(-1102 0.5)"/>
</clipPath>
</defs>
</svg>
