<svg width="46" height="46" viewBox="0 0 46 46" fill="none" xmlns="http://www.w3.org/2000/svg">
<path d="M12.4583 38.3335H9.58333C7.46624 38.3335 5.75 36.6173 5.75 34.5002V7.66683C5.75 5.54974 7.46624 3.8335 9.58333 3.8335H36.4167C38.5338 3.8335 40.25 5.54974 40.25 7.66683V34.5002C40.25 36.6173 38.5338 38.3335 36.4167 38.3335H33.5417M23 36.4168C26.1756 36.4168 28.75 33.8425 28.75 30.6668C28.75 27.4912 26.1756 24.9168 23 24.9168C19.8244 24.9168 17.25 27.4912 17.25 30.6668C17.25 33.8425 19.8244 36.4168 23 36.4168ZM23 36.4168L23.0411 36.4164L16.9216 42.5359L11.5005 37.1148L17.2877 31.3276M23 36.4168L29.1196 42.5359L34.5407 37.1148L28.7535 31.3276M17.25 11.5002H28.75M13.4167 18.2085H32.5833" stroke="#FC4C02" stroke-width="4" stroke-linecap="round" stroke-linejoin="round"/>
</svg>
