<svg width="46" height="46" viewBox="0 0 46 46" fill="none" xmlns="http://www.w3.org/2000/svg">
<path d="M35.093 16.4583L11.8546 29.875M35.093 16.4583L37.1976 8.60369M35.093 16.4583L42.9476 18.563M11.8546 29.875L4 27.7704M11.8546 29.875L9.75 37.7296M35.0928 29.8747L11.8545 16.4581M35.0928 29.8747L42.9477 27.7701M35.0928 29.8747L37.1977 37.7294M11.8545 16.4581L9.75027 8.6039M11.8545 16.4581L4.00027 18.5632M23.4738 9.75L23.4738 36.5833M23.4738 9.75L17.7238 4M23.4738 9.75L29.2238 4M23.4738 36.5833L17.7238 42.3333M23.4738 36.5833L29.2238 42.3333" stroke="#FC4C02" stroke-width="4" stroke-linecap="round" stroke-linejoin="round"/>
</svg>
