<svg width="100" height="91" viewBox="0 0 100 91" fill="none" xmlns="http://www.w3.org/2000/svg">
<path d="M6.39844 61.6273H2.5333V62.8914H5.8629V64.8388H2.5333V67.8086H0V59.5544H6.39844V61.6273Z" fill="#231F20"/>
<path d="M14.4925 67.8086H11.9266L11.5214 66.6374H8.84844L8.43864 67.8086H5.88672L8.94158 59.5544H11.4516L14.4925 67.8086ZM10.5202 63.4491C10.3927 63.0386 10.2886 62.6212 10.2082 62.1989C10.0685 62.7659 10.022 62.9518 9.85896 63.4631C9.85896 63.4631 9.68666 64.0301 9.39328 64.8574H10.9487L10.5202 63.4491Z" fill="#231F20"/>
<path d="M18.9988 68.0037C16.4655 68.0037 14.8496 66.1028 14.8496 63.6582C14.8496 61.2135 16.5354 59.3452 19.0407 59.3452C21.0571 59.3452 22.673 60.7395 22.7894 62.5985H20.3307C20.2999 62.2719 20.1445 61.9696 19.8966 61.7542C19.6486 61.5387 19.3272 61.4267 18.9988 61.4413C17.802 61.4413 17.4062 62.6311 17.4062 63.6535C17.4062 65.0199 18.0116 65.8658 18.9988 65.8658C19.7392 65.8658 20.2049 65.401 20.3307 64.5459H22.8174C22.6777 66.8325 21.0059 68.0037 18.9988 68.0037Z" fill="#231F20"/>
<path d="M30.6554 61.6737H28.327V67.8086H25.803V61.6737H23.4746V59.5544H30.6554V61.6737Z" fill="#231F20"/>
<path d="M39.7736 63.6721C39.7736 66.2562 38.0972 67.9944 35.6151 67.9944C33.133 67.9944 31.3867 66.2795 31.3867 63.6721C31.3867 61.0648 33.0725 59.3406 35.6384 59.3406C38.1111 59.3359 39.7736 61.0834 39.7736 63.6721ZM33.9666 63.6257C33.9666 65.099 34.5673 65.9495 35.6151 65.9495C36.6629 65.9495 37.2031 65.1268 37.2031 63.5606C37.2031 62.1663 36.6116 61.3576 35.6011 61.3576C34.5906 61.3576 33.9666 62.2221 33.9666 63.635V63.6257Z" fill="#231F20"/>
<path d="M45.3105 59.5544C46.6005 59.5544 48.2583 60.075 48.2583 61.9898C48.2699 62.4073 48.1611 62.8194 47.9448 63.177C47.7285 63.5346 47.4138 63.8226 47.0382 64.0068C47.8764 64.216 48.1791 65.3175 48.249 66.0471L48.3281 66.9162C48.326 67.2261 48.3979 67.5319 48.5377 67.8086H46.0277C45.9384 67.559 45.8882 67.2972 45.8786 67.0324L45.846 66.5677C45.7762 65.6381 45.6225 64.8992 44.449 64.8992H43.378V67.8086H40.8633V59.5544H45.3105ZM43.3686 63.161H44.7657C45.3431 63.161 45.7995 62.9518 45.7995 62.3012C45.7995 61.7435 45.4037 61.4693 44.626 61.4693H43.3686V63.161Z" fill="#231F20"/>
<path d="M53.4829 64.8295V67.8086H50.9868V64.7691L48.0391 59.5544H50.8331L51.4478 60.8651C51.7418 61.4554 52.0014 62.0622 52.2255 62.6823C52.4956 61.9991 52.7983 61.3531 53.1103 60.6885L53.6552 59.5544H56.4492L53.4829 64.8295Z" fill="#231F20"/>
<path d="M67.453 61.6737H65.1246V67.8086H62.596V61.6737H60.2676V59.5544H67.4344L67.453 61.6737Z" fill="#231F20"/>
<path d="M75.2912 61.5576H70.9372V62.5893H74.8861V64.5041H70.9372V65.7079H75.4077V67.8086H68.4551V59.5544H75.3052L75.2912 61.5576Z" fill="#231F20"/>
<path d="M84.0684 67.8086H81.6422L79.5885 64.295C79.3557 63.8907 79.1554 63.4817 78.9599 63.0541C79.0209 63.6827 79.0473 64.3142 79.039 64.9457V67.8086H76.6035V59.5544H79.1089L80.9017 62.6497C81.2012 63.1514 81.4718 63.6696 81.712 64.202C81.6655 63.5746 81.6422 62.9379 81.6422 62.3012V59.5544H84.0777L84.0684 67.8086Z" fill="#231F20"/>
<path d="M92.2038 61.6737H89.8754V67.8086H87.3421V61.6737H85.0137V59.5544H92.2038V61.6737Z" fill="#231F20"/>
<path d="M97.2842 62.0593C97.2842 61.5574 96.8791 61.2693 96.2271 61.2693C95.6916 61.2693 95.3889 61.4552 95.3889 61.7805C95.3889 62.2917 96.7859 62.4869 97.1538 62.5799C98.5509 62.9377 99.9991 63.4722 99.9991 65.1872C99.9991 66.9021 98.6021 67.9757 96.3901 67.9757C94.0617 67.9757 92.6647 66.851 92.6367 65.0059H95.1793C95.2259 65.8053 95.7288 66.0749 96.4693 66.0749C97.1072 66.0749 97.5031 65.8053 97.5031 65.387C97.4995 65.3238 97.4818 65.2621 97.4512 65.2066C97.4205 65.1511 97.3778 65.1032 97.3261 65.0663C96.9908 64.7875 95.5612 64.4436 94.9977 64.2437C93.8149 63.8394 92.9534 63.3746 92.9534 61.9618C92.9534 60.4095 94.2992 59.3777 96.297 59.3777C98.4111 59.3777 99.6312 60.349 99.6545 62.0547L97.2842 62.0593Z" fill="#231F20"/>
<path d="M43.1074 45.5H56.3467C50.3627 33.314 50.1019 -4.3594 50.1019 2.10076C50.1019 33.314 43.1074 45.5 43.1074 45.5Z" fill="#231F20"/>
<path d="M78.6993 45.5H97.415C91.8967 44.617 62.3354 38.1428 51.8203 0C51.8203 0 56.37 37.6177 78.6993 45.5Z" fill="#231F20"/>
<path d="M21.3277 45.5C43.6338 37.6177 48.1788 0 48.1788 0C37.6638 38.1428 8.10244 44.617 2.60742 45.5H21.3277Z" fill="#231F20"/>
</svg>
