<svg width="100" height="90" viewBox="0 0 100 90" fill="none" xmlns="http://www.w3.org/2000/svg">
<g clip-path="url(#clip0_2743_1314)">
<path d="M6.39844 60.9504H2.5333V62.2007H5.8629V64.1266H2.5333V67.0638H0V58.9004H6.39844V60.9504Z" fill="white"/>
<path d="M14.4925 67.0638H11.9266L11.5214 65.9055H8.84844L8.43864 67.0638H5.88672L8.94158 58.9004H11.4516L14.4925 67.0638ZM10.5202 62.7523C10.3927 62.3463 10.2886 61.9334 10.2082 61.5158C10.0685 62.0766 10.022 62.2605 9.85896 62.7661C9.85896 62.7661 9.68666 63.3268 9.39328 64.145H10.9487L10.5202 62.7523Z" fill="white"/>
<path d="M18.9988 67.2567C16.4655 67.2567 14.8496 65.3767 14.8496 62.9589C14.8496 60.5412 16.5354 58.6934 19.0407 58.6934C21.0571 58.6934 22.673 60.0723 22.7894 61.9109H20.3307C20.2999 61.5879 20.1445 61.2889 19.8966 61.0758C19.6486 60.8628 19.3272 60.752 18.9988 60.7664C17.802 60.7664 17.4062 61.9431 17.4062 62.9543C17.4062 64.3057 18.0116 65.1423 18.9988 65.1423C19.7392 65.1423 20.2049 64.6826 20.3307 63.8369H22.8174C22.6777 66.0984 21.0059 67.2567 18.9988 67.2567Z" fill="white"/>
<path d="M30.6554 60.9964H28.327V67.0638H25.803V60.9964H23.4746V58.9004H30.6554V60.9964Z" fill="white"/>
<path d="M39.7736 62.9715C39.7736 65.5271 38.0972 67.2462 35.6151 67.2462C33.133 67.2462 31.3867 65.5501 31.3867 62.9715C31.3867 60.3928 33.0725 58.6875 35.6384 58.6875C38.1111 58.6829 39.7736 60.4112 39.7736 62.9715ZM33.9666 62.9255C33.9666 64.3826 34.5673 65.2238 35.6151 65.2238C36.6629 65.2238 37.2031 64.4102 37.2031 62.8612C37.2031 61.4822 36.6116 60.6824 35.6011 60.6824C34.5906 60.6824 33.9666 61.5374 33.9666 62.9347V62.9255Z" fill="white"/>
<path d="M45.3105 58.9004C46.6005 58.9004 48.2583 59.4152 48.2583 61.309C48.2699 61.7219 48.1611 62.1295 47.9448 62.4832C47.7285 62.8368 47.4138 63.1217 47.0382 63.3039C47.8764 63.5107 48.1791 64.6001 48.249 65.3217L48.3281 66.1813C48.326 66.4877 48.3979 66.7902 48.5377 67.0638H46.0277C45.9384 66.817 45.8882 66.5581 45.8786 66.2962L45.846 65.8365C45.7762 64.9172 45.6225 64.1864 44.449 64.1864H43.378V67.0638H40.8633V58.9004H45.3105ZM43.3686 62.4673H44.7657C45.3431 62.4673 45.7995 62.2605 45.7995 61.6169C45.7995 61.0654 45.4037 60.7942 44.626 60.7942H43.3686V62.4673Z" fill="white"/>
<path d="M53.4829 64.1175V67.0638H50.9868V64.0577L48.0391 58.9004H50.8331L51.4478 60.1966C51.7418 60.7805 52.0014 61.3806 52.2255 61.9939C52.4956 61.3182 52.7983 60.6792 53.1103 60.0219L53.6552 58.9004H56.4492L53.4829 64.1175Z" fill="white"/>
<path d="M67.453 60.9964H65.1246V67.0638H62.596V60.9964H60.2676V58.9004H67.4344L67.453 60.9964Z" fill="white"/>
<path d="M75.2912 60.8815H70.9372V61.9019H74.8861V63.7957H70.9372V64.9862H75.4077V67.0638H68.4551V58.9004H75.3052L75.2912 60.8815Z" fill="white"/>
<path d="M84.0684 67.0638H81.6422L79.5885 63.5888C79.3557 63.1889 79.1554 62.7845 78.9599 62.3616C79.0209 62.9833 79.0473 63.6078 79.039 64.2324V67.0638H76.6035V58.9004H79.1089L80.9017 61.9617C81.2012 62.4578 81.4718 62.9704 81.712 63.4969C81.6655 62.8764 81.6422 62.2467 81.6422 61.6169V58.9004H84.0777L84.0684 67.0638Z" fill="white"/>
<path d="M92.2038 60.9964H89.8754V67.0638H87.3421V60.9964H85.0137V58.9004H92.2038V60.9964Z" fill="white"/>
<path d="M97.2842 61.3768C97.2842 60.8804 96.8791 60.5954 96.2271 60.5954C95.6916 60.5954 95.3889 60.7793 95.3889 61.101C95.3889 61.6066 96.7859 61.7997 97.1538 61.8916C98.5509 62.2455 99.9991 62.7741 99.9991 64.4703C99.9991 66.1664 98.6021 67.2282 96.3901 67.2282C94.0617 67.2282 92.6647 66.1158 92.6367 64.291H95.1793C95.2259 65.0816 95.7288 65.3482 96.4693 65.3482C97.1072 65.3482 97.5031 65.0816 97.5031 64.6679C97.4995 64.6053 97.4818 64.5444 97.4512 64.4895C97.4205 64.4346 97.3778 64.3872 97.3261 64.3508C96.9908 64.075 95.5612 63.7348 94.9977 63.5372C93.8149 63.1373 92.9534 62.6776 92.9534 61.2803C92.9534 59.745 94.2992 58.7246 96.297 58.7246C98.4111 58.7246 99.6312 59.6853 99.6545 61.3722L97.2842 61.3768Z" fill="white"/>
<path d="M43.1074 44.9991H56.3467C50.3627 32.947 50.1019 -4.3124 50.1019 2.07677C50.1019 32.947 43.1074 44.9991 43.1074 44.9991Z" fill="white"/>
<path d="M78.6993 45H97.415C91.8967 44.1267 62.3354 37.7237 51.8203 0C51.8203 0 56.37 37.2043 78.6993 45Z" fill="white"/>
<path d="M21.3277 45C43.6338 37.2043 48.1788 0 48.1788 0C37.6638 37.7237 8.10244 44.1267 2.60742 45H21.3277Z" fill="white"/>
<g opacity="0.15">
<path d="M43.1074 45H56.3467C50.372 57.0475 50.1112 94.3115 50.1112 87.9178C50.1019 57.0475 43.1074 45 43.1074 45Z" fill="url(#paint0_linear_2743_1314)"/>
<path d="M78.6996 45H97.4152C91.9202 45.8733 62.3589 52.2763 51.8438 90C51.8206 90 56.3702 52.7957 78.6996 45Z" fill="url(#paint1_linear_2743_1314)"/>
<path d="M21.3277 45C43.6338 52.8141 48.1788 90 48.1788 90C37.6638 52.2763 8.10244 45.8733 2.60742 45H21.3277Z" fill="url(#paint2_linear_2743_1314)"/>
</g>
</g>
<defs>
<linearGradient id="paint0_linear_2743_1314" x1="49.7247" y1="36.3447" x2="49.7247" y2="91.1675" gradientUnits="userSpaceOnUse">
<stop stop-color="#D5D7D8"/>
<stop offset="0.03" stop-color="#D5D7D8" stop-opacity="0.94"/>
<stop offset="0.17" stop-color="#D5D7D8" stop-opacity="0.69"/>
<stop offset="0.31" stop-color="#D5D7D8" stop-opacity="0.48"/>
<stop offset="0.45" stop-color="#D5D7D8" stop-opacity="0.31"/>
<stop offset="0.59" stop-color="#D5D7D8" stop-opacity="0.17"/>
<stop offset="0.73" stop-color="#D5D7D8" stop-opacity="0.08"/>
<stop offset="0.87" stop-color="#D5D7D8" stop-opacity="0.02"/>
<stop offset="1" stop-color="#D5D7D8" stop-opacity="0"/>
</linearGradient>
<linearGradient id="paint1_linear_2743_1314" x1="74.6063" y1="36.3447" x2="74.6063" y2="91.1675" gradientUnits="userSpaceOnUse">
<stop stop-color="#D5D7D8"/>
<stop offset="0.03" stop-color="#D5D7D8" stop-opacity="0.94"/>
<stop offset="0.17" stop-color="#D5D7D8" stop-opacity="0.69"/>
<stop offset="0.31" stop-color="#D5D7D8" stop-opacity="0.48"/>
<stop offset="0.45" stop-color="#D5D7D8" stop-opacity="0.31"/>
<stop offset="0.59" stop-color="#D5D7D8" stop-opacity="0.17"/>
<stop offset="0.73" stop-color="#D5D7D8" stop-opacity="0.08"/>
<stop offset="0.87" stop-color="#D5D7D8" stop-opacity="0.02"/>
<stop offset="1" stop-color="#D5D7D8" stop-opacity="0"/>
</linearGradient>
<linearGradient id="paint2_linear_2743_1314" x1="25.3931" y1="36.3447" x2="25.3931" y2="91.1675" gradientUnits="userSpaceOnUse">
<stop stop-color="#D5D7D8"/>
<stop offset="0.03" stop-color="#D5D7D8" stop-opacity="0.94"/>
<stop offset="0.17" stop-color="#D5D7D8" stop-opacity="0.69"/>
<stop offset="0.31" stop-color="#D5D7D8" stop-opacity="0.48"/>
<stop offset="0.45" stop-color="#D5D7D8" stop-opacity="0.31"/>
<stop offset="0.59" stop-color="#D5D7D8" stop-opacity="0.17"/>
<stop offset="0.73" stop-color="#D5D7D8" stop-opacity="0.08"/>
<stop offset="0.87" stop-color="#D5D7D8" stop-opacity="0.02"/>
<stop offset="1" stop-color="#D5D7D8" stop-opacity="0"/>
</linearGradient>
<clipPath id="clip0_2743_1314">
<rect width="100" height="90" fill="white"/>
</clipPath>
</defs>
</svg>
