<svg width="46" height="46" viewBox="0 0 46 46" fill="none" xmlns="http://www.w3.org/2000/svg">
<path d="M23.0007 28.7502C26.1763 28.7502 28.7507 26.1758 28.7507 23.0002C28.7507 19.8245 26.1763 17.2502 23.0007 17.2502C19.825 17.2502 17.2507 19.8245 17.2507 23.0002C17.2507 26.1758 19.825 28.7502 23.0007 28.7502Z" stroke="#FC4C02" stroke-width="4" stroke-linecap="round" stroke-linejoin="round"/>
<path d="M35.8946 28.2274C35.6626 28.753 35.5935 29.336 35.6959 29.9012C35.7984 30.4664 36.0679 30.988 36.4696 31.3986L36.5741 31.5032C36.8981 31.8268 37.1552 32.2112 37.3306 32.6342C37.5059 33.0573 37.5962 33.5108 37.5962 33.9687C37.5962 34.4267 37.5059 34.8802 37.3306 35.3032C37.1552 35.7263 36.8981 36.1106 36.5741 36.4343C36.2505 36.7583 35.8661 37.0153 35.4431 37.1907C35.02 37.366 34.5666 37.4563 34.1086 37.4563C33.6506 37.4563 33.1972 37.366 32.7741 37.1907C32.3511 37.0153 31.9667 36.7583 31.6431 36.4343L31.5385 36.3297C31.1279 35.928 30.6063 35.6586 30.0411 35.5561C29.4758 35.4536 28.8929 35.5228 28.3673 35.7547C27.852 35.9756 27.4124 36.3423 27.1029 36.8098C26.7933 37.2773 26.6271 37.8251 26.6249 38.3858V38.682C26.6249 39.6062 26.2577 40.4926 25.6042 41.1461C24.9507 41.7997 24.0643 42.1668 23.14 42.1668C22.2158 42.1668 21.3294 41.7997 20.6759 41.1461C20.0223 40.4926 19.6552 39.6062 19.6552 38.682V38.5252C19.6417 37.9484 19.455 37.3891 19.1194 36.9199C18.7838 36.4506 18.3148 36.0932 17.7734 35.8941C17.2478 35.6622 16.6649 35.593 16.0996 35.6955C15.5344 35.7979 15.0128 36.0674 14.6022 36.4691L14.4976 36.5736C14.174 36.8977 13.7896 37.1547 13.3666 37.3301C12.9435 37.5054 12.4901 37.5957 12.0321 37.5957C11.5741 37.5957 11.1207 37.5054 10.6976 37.3301C10.2745 37.1547 9.89021 36.8977 9.56656 36.5736C9.24255 36.25 8.98551 35.8657 8.81014 35.4426C8.63477 35.0196 8.5445 34.5661 8.5445 34.1081C8.5445 33.6502 8.63477 33.1967 8.81014 32.7736C8.98551 32.3506 9.24255 31.9662 9.56656 31.6426L9.67111 31.538C10.0728 31.1274 10.3423 30.6058 10.4447 30.0406C10.5472 29.4753 10.478 28.8924 10.2461 28.3668C10.0252 27.8515 9.65848 27.412 9.19101 27.1024C8.72353 26.7928 8.17573 26.6266 7.61505 26.6244H7.31883C6.39459 26.6244 5.50821 26.2573 4.85467 25.6037C4.20114 24.9502 3.83398 24.0638 3.83398 23.1396C3.83398 22.2153 4.20114 21.3289 4.85467 20.6754C5.50821 20.0219 6.39459 19.6547 7.31883 19.6547H7.47565C8.05238 19.6412 8.61172 19.4545 9.08095 19.1189C9.55017 18.7833 9.90758 18.3143 10.1067 17.7729C10.3387 17.2473 10.4078 16.6644 10.3054 16.0991C10.2029 15.5339 9.9334 15.0123 9.53171 14.6017L9.42717 14.4971C9.10316 14.1735 8.84612 13.7891 8.67075 13.3661C8.49537 12.943 8.40511 12.4896 8.40511 12.0316C8.40511 11.5736 8.49537 11.1202 8.67075 10.6971C8.84612 10.2741 9.10316 9.88972 9.42717 9.56607C9.75081 9.24206 10.1352 8.98502 10.5582 8.80965C10.9813 8.63428 11.4347 8.54401 11.8927 8.54401C12.3507 8.54401 12.8041 8.63428 13.2272 8.80965C13.6502 8.98502 14.0346 9.24206 14.3582 9.56607L14.4628 9.67062C14.8734 10.0723 15.395 10.3418 15.9602 10.4443C16.5255 10.5467 17.1084 10.4776 17.634 10.2456H17.7734C18.2887 10.0247 18.7283 9.65799 19.0378 9.19052C19.3474 8.72304 19.5136 8.17525 19.5158 7.61456V7.31834C19.5158 6.39411 19.883 5.50772 20.5365 4.85418C21.19 4.20065 22.0764 3.8335 23.0007 3.8335C23.9249 3.8335 24.8113 4.20065 25.4648 4.85418C26.1183 5.50772 26.4855 6.39411 26.4855 7.31834V7.47516C26.4877 8.03585 26.6539 8.58365 26.9635 9.05113C27.273 9.5186 27.7126 9.88535 28.2279 10.1062C28.7535 10.3382 29.3364 10.4074 29.9017 10.3049C30.4669 10.2024 30.9885 9.93292 31.3991 9.53122L31.5037 9.42668C31.8273 9.10267 32.2117 8.84563 32.6347 8.67026C33.0578 8.49489 33.5112 8.40462 33.9692 8.40462C34.4272 8.40462 34.8806 8.49489 35.3037 8.67026C35.7268 8.84563 36.1111 9.10267 36.4347 9.42668C36.7587 9.75033 37.0158 10.1347 37.1912 10.5577C37.3665 10.9808 37.4568 11.4342 37.4568 11.8922C37.4568 12.3502 37.3665 12.8036 37.1912 13.2267C37.0158 13.6498 36.7587 14.0341 36.4347 14.3577L36.3302 14.4623C35.9285 14.8729 35.659 15.3945 35.5566 15.9597C35.4541 16.525 35.5233 17.108 35.7552 17.6335V17.7729C35.9761 18.2882 36.3428 18.7278 36.8103 19.0374C37.2778 19.3469 37.8256 19.5131 38.3863 19.5153H38.6825C39.6067 19.5153 40.4931 19.8825 41.1466 20.536C41.8002 21.1895 42.1673 22.0759 42.1673 23.0002C42.1673 23.9244 41.8002 24.8108 41.1466 25.4643C40.4931 26.1179 39.6067 26.485 38.6825 26.485H38.5257C37.965 26.4872 37.4172 26.6534 36.9497 26.963C36.4822 27.2726 36.1155 27.7121 35.8946 28.2274Z" stroke="#FC4C02" stroke-width="4" stroke-linecap="round" stroke-linejoin="round"/>
</svg>
