<svg width="46" height="46" viewBox="0 0 46 46" fill="none" xmlns="http://www.w3.org/2000/svg">
<path d="M5.75 20.2496C5.75 19.1488 5.75 18.5983 5.89189 18.0915C6.01757 17.6424 6.22412 17.2201 6.50139 16.8452C6.8144 16.422 7.24887 16.0841 8.11783 15.4083L21.1172 5.2976C21.7906 4.77387 22.1273 4.512 22.4991 4.41134C22.8271 4.32252 23.1729 4.32252 23.5009 4.41134C23.8727 4.512 24.2094 4.77387 24.8828 5.2976L37.8822 15.4083C38.7511 16.0841 39.1856 16.422 39.4986 16.8452C39.7759 17.2201 39.9824 17.6424 40.1081 18.0915C40.25 18.5983 40.25 19.1488 40.25 20.2496V34.1166C40.25 36.2634 40.25 37.3369 39.8322 38.1569C39.4647 38.8782 38.8783 39.4646 38.157 39.8321C37.337 40.2499 36.2635 40.2499 34.1167 40.2499H11.8833C9.73647 40.2499 8.66303 40.2499 7.84304 39.8321C7.12175 39.4646 6.53532 38.8782 6.16781 38.1569C5.75 37.3369 5.75 36.2634 5.75 34.1166V20.2496Z" stroke="#FC4C02" stroke-width="4" stroke-linecap="round" stroke-linejoin="round"/>
</svg>
