<svg width="40" height="40" viewBox="0 0 40 40" fill="none" xmlns="http://www.w3.org/2000/svg">
<g clip-path="url(#clip0_2743_958)">
<path d="M39.9986 11.4748C39.8216 12.2771 39.5947 13.0592 39.0691 13.7154C38.9155 13.9076 38.7588 14.1006 38.5857 14.2748C36.8422 16.024 35.0972 17.7709 33.3483 19.5139C32.822 20.0381 32.1397 20.1623 31.5261 19.8678C30.9506 19.592 30.5974 18.985 30.645 18.3428C30.6777 17.9061 30.8898 17.5631 31.1962 17.2584C32.8727 15.5896 34.5428 13.9146 36.2146 12.242C36.9779 11.4779 37.0668 10.9381 36.5842 9.97168C35.6212 8.04434 34.6473 6.12246 33.6999 4.1873C33.3374 3.44824 32.7869 3.12012 31.9651 3.12324C27.9627 3.1373 23.9604 3.13652 19.9573 3.12324C19.1362 3.12012 18.574 3.44434 18.2255 4.19121C17.8816 4.92715 17.5035 5.64746 17.1276 6.39902C21.4122 7.28887 24.5553 9.62637 26.39 13.5725C27.813 16.6326 27.8972 19.7967 26.7697 22.9779C24.4461 29.5334 16.5506 33.4201 9.44576 29.9068C8.8173 30.8084 8.18572 31.7123 7.55492 32.617C6.08358 34.7264 4.60599 36.8318 3.14634 38.9498C2.83367 39.4037 2.47968 39.7717 1.94556 39.9404H1.32178C0.691763 39.7389 0.274609 39.324 0.0742188 38.6928C0.0742188 38.485 0.0742188 38.2771 0.0742188 38.0686C0.266811 37.7326 0.436792 37.3811 0.655895 37.0639C2.52178 34.3748 4.39625 31.692 6.26837 29.0068C6.4672 28.7217 6.66291 28.4357 6.86174 28.1467C6.75258 28.0428 6.66915 27.9607 6.58338 27.8818C2.45395 24.1021 1.34829 17.9068 3.99235 12.9678C5.97753 9.25996 9.08786 7.06152 13.2524 6.39277C13.5674 6.34199 13.7428 6.22012 13.8816 5.92793C14.4134 4.81543 14.9584 3.70918 15.5315 2.61699C16.4204 0.930274 17.8325 0.0279297 19.7413 0.0177734C23.8988 -0.00566406 28.0571 -0.00644531 32.2153 0.0185547C34.0571 0.0294922 35.438 0.895117 36.3339 2.50762C36.6302 3.04043 36.9046 3.58652 37.1565 4.14121C38.0937 6.20059 39.374 8.10215 39.9986 10.3053V11.4748ZM5.69059 18.7303C5.69215 23.8818 9.89098 28.0834 15.0403 28.0857C20.192 28.0889 24.3955 23.8936 24.4033 18.7428C24.4111 13.574 20.2021 9.3623 15.0333 9.36855C9.88241 9.3748 5.68825 13.5764 5.69059 18.7295V18.7303Z" fill="white"/>
<path d="M19.4955 20.0171C19.3162 19.9234 18.9045 19.8101 18.6355 19.5499C17.1423 18.1031 15.6772 16.6265 14.2168 15.1468C13.6063 14.5281 13.6211 13.5726 14.2106 12.9695C14.8203 12.346 15.7724 12.321 16.4125 12.9523C17.8924 14.4124 19.3622 15.8843 20.8226 17.364C21.3076 17.8546 21.4168 18.4523 21.1322 19.0882C20.8624 19.6929 20.3696 19.9835 19.4948 20.0171H19.4955Z" fill="white"/>
</g>
<defs>
<clipPath id="clip0_2743_958">
<rect width="40" height="40" fill="white"/>
</clipPath>
</defs>
</svg>
