<svg width="40" height="40" viewBox="0 0 40 40" fill="none" xmlns="http://www.w3.org/2000/svg">
<g clip-path="url(#clip0_2743_953)">
<path d="M38.75 39.9393H38.125C37.4367 39.6956 36.9531 39.2698 36.8812 38.5011C36.7711 37.3198 36.2297 36.8198 35.0367 36.8198C25.0117 36.8198 14.9875 36.8198 4.9625 36.8198C4.84531 36.8198 4.72813 36.8159 4.61094 36.8222C3.83672 36.8636 3.16875 37.4581 3.14141 38.2284C3.11016 39.1143 2.68672 39.6565 1.87422 39.9386H1.24922C0.61875 39.7378 0.200781 39.3229 0 38.6917C0 38.4057 0 38.1198 0 37.8339C0.0257813 37.7362 0.0570313 37.6393 0.0773437 37.5401C0.375781 36.062 1.19219 34.9651 2.51406 34.2417C2.71563 34.1315 2.92813 34.0417 3.17031 33.9268C2.66953 32.7854 2.82031 31.5932 2.81641 30.4198C2.80547 26.4729 2.8125 22.5261 2.8125 18.5792V18.094C1.64219 18.1331 0.455469 18.2862 0 16.8565V16.2323C0.314844 15.2964 0.978906 14.9089 1.94844 14.9815C2.22813 15.0026 2.51016 14.9847 2.8125 14.9847V14.469C2.8125 10.2729 2.8125 6.07606 2.8125 1.87997C2.8125 1.737 2.80313 1.59247 2.81875 1.45184C2.89141 0.799497 3.23125 0.332309 3.85 0.108872C4.47187 -0.115347 5.03438 0.0323093 5.49922 0.494809C5.84062 0.835434 5.94141 1.26747 5.94063 1.74325C5.93516 6.00496 5.9375 10.2659 5.9375 14.5276C5.9375 14.6761 5.9375 14.8253 5.9375 14.9659H34.0625V14.5284C34.0625 12.2675 34.0625 10.0073 34.0625 7.74637C34.0625 5.70653 34.0602 3.66668 34.0641 1.62684C34.0656 0.897934 34.4742 0.316684 35.1172 0.0987156C36.175 -0.260659 37.1852 0.508091 37.1859 1.68543C37.1891 5.95965 37.1875 10.2339 37.1875 14.5089C37.1875 14.6597 37.1875 14.8104 37.1875 14.9964C38.3563 14.9581 39.5445 14.8034 40 16.2339V16.8581C39.6836 17.7909 39.0211 18.1807 38.0523 18.1089C37.7727 18.0878 37.4906 18.1057 37.1875 18.1057V18.6198C37.1875 23.0597 37.1984 27.4995 37.175 31.9393C37.1719 32.5378 36.9961 33.1354 36.9008 33.7339C36.8891 33.8065 36.8805 33.88 36.8703 33.9581C36.9578 33.9979 37.0273 34.0307 37.0977 34.0612C38.5805 34.7089 39.5086 35.8206 39.8922 37.3878C39.9289 37.537 39.9641 37.687 40 37.8362V38.694C39.7984 39.3245 39.3812 39.7401 38.75 39.9417V39.9393ZM21.7672 33.6839C21.6969 33.1932 21.5789 32.7339 21.5742 32.2729C21.5539 30.0901 21.5406 27.9065 21.5711 25.7237C21.6039 23.3815 23.5906 21.2831 25.9375 21.2518C28.6352 21.2159 31.3422 21.0682 34.0422 21.3807V18.1284H5.95937V21.4229C6.46484 21.3557 6.95156 21.2393 7.43906 21.2346C9.57422 21.2143 11.7094 21.212 13.8445 21.23C16.0891 21.2487 18.0242 22.9432 18.3711 25.1604C18.3969 25.3268 18.4336 25.4956 18.4305 25.6628C18.3758 28.3315 18.593 31.0073 18.2836 33.6847H21.7672V33.6839ZM9.0625 24.3432C8.50625 24.3432 8 24.3347 7.49531 24.3448C6.61094 24.3628 5.94531 25.0237 5.94141 25.912C5.93203 27.9893 5.93125 30.0675 5.94141 32.1448C5.94609 33.0268 6.62031 33.6925 7.50938 33.6972C9.59062 33.7065 11.6727 33.7073 13.7539 33.6972C14.6227 33.6925 15.3008 33.0307 15.307 32.1706C15.3203 30.0675 15.318 27.9636 15.307 25.8596C15.3039 25.1925 14.8727 24.5597 14.2344 24.4432C13.5719 24.3222 12.8813 24.3503 12.1875 24.312C12.1875 24.887 12.1922 25.3667 12.1867 25.8472C12.1758 26.7698 11.5148 27.4557 10.6375 27.462C9.74531 27.4682 9.07266 26.7745 9.06406 25.8323C9.05937 25.3534 9.06406 24.8745 9.06406 24.344L9.0625 24.3432ZM30.9375 24.3526C30.9375 24.8682 30.9406 25.3347 30.9375 25.8011C30.9305 26.7581 30.2844 27.4511 29.3937 27.4604C28.4867 27.4698 27.8203 26.7698 27.8141 25.7979C27.8109 25.3221 27.8141 24.8464 27.8141 24.3526C27.1977 24.3526 26.625 24.3151 26.0586 24.362C25.2898 24.4253 24.6984 25.0862 24.6945 25.8675C24.6828 27.9714 24.6812 30.0745 24.6945 32.1784C24.7 33.005 25.3555 33.6854 26.1766 33.6925C28.3102 33.7112 30.4438 33.7112 32.5766 33.6925C33.3813 33.6854 34.0477 33.019 34.0547 32.2151C34.0734 30.0854 34.0719 27.9557 34.0547 25.8268C34.0484 25.0682 33.4445 24.4229 32.6906 24.3628C32.125 24.3175 31.5523 24.3542 30.9383 24.3542L30.9375 24.3526Z" fill="white"/>
<path d="M21.5617 3.13204C21.5617 3.64688 21.5641 4.1125 21.5617 4.57813C21.5555 5.55703 20.8969 6.25547 19.9883 6.25C19.0977 6.24453 18.4445 5.54922 18.4375 4.59532C18.4344 4.12813 18.4375 3.66094 18.4375 3.10469C17.7547 3.13829 17.075 3.10313 16.4242 3.22266C15.7242 3.35079 15.3148 4 15.3133 4.77032C15.3094 6.60235 15.3195 8.43516 15.3086 10.2672C15.3023 11.3852 14.2742 12.1289 13.2437 11.7805C12.6398 11.5766 12.1961 11.0164 12.193 10.3703C12.182 8.38203 12.1461 6.39219 12.2039 4.40547C12.2727 2.05 14.3445 0.0523478 16.7094 0.0210978C18.8961 -0.00780843 21.0844 -0.00624593 23.2711 0.0210978C25.7055 0.0507853 27.7687 2.11172 27.8039 4.54375C27.8312 6.45391 27.8164 8.36485 27.8086 10.275C27.8047 11.1891 27.1148 11.8727 26.2344 11.8656C25.3578 11.8586 24.6914 11.1695 24.6883 10.2469C24.6828 8.45313 24.6883 6.66016 24.6859 4.86641C24.6852 3.7586 24.0547 3.13516 22.9391 3.13282C22.4977 3.13282 22.057 3.13282 21.5617 3.13282V3.13204Z" fill="white"/>
</g>
<defs>
<clipPath id="clip0_2743_953">
<rect width="40" height="40" fill="white"/>
</clipPath>
</defs>
</svg>
